<?xml version="1.0" encoding="utf-8"?><svg version="1.1" id="Layer_1" xmlns="http://www.w3.org/2000/svg" xmlns:xlink="http://www.w3.org/1999/xlink" x="0px" y="0px" viewBox="0 0 1023 1023" style="enable-background:new 0 0 1023 1023;" xml:space="preserve"><style type="text/css"> .st0{fill:#FFFFFF;} </style><rect id="white_background" y="0" class="st0" width="1023" height="1023"/> <g><rect x="49" y="249" width="25" height="25" /><rect x="49" y="324" width="25" height="25" /><rect x="49" y="349" width="25" height="25" /><rect x="49" y="374" width="25" height="25" /><rect x="49" y="474" width="25" height="25" /><rect x="49" y="549" width="25" height="25" /><rect x="49" y="599" width="25" height="25" /><rect x="49" y="624" width="25" height="25" /><rect x="49" y="674" width="25" height="25" /><rect x="49" y="699" width="25" height="25" /><rect x="74" y="249" width="25" height="25" /><rect x="74" y="299" width="25" height="25" /><rect x="74" y="324" width="25" height="25" /><rect x="74" y="374" width="25" height="25" /><rect x="74" y="449" width="25" height="25" /><rect x="74" y="474" width="25" height="25" /><rect x="74" y="499" width="25" height="25" /><rect x="74" y="524" width="25" height="25" /><rect x="74" y="574" width="25" height="25" /><rect x="74" y="599" width="25" height="25" /><rect x="74" y="624" width="25" height="25" /><rect x="74" y="649" width="25" height="25" /><rect x="74" y="699" width="25" height="25" /><rect x="99" y="274" width="25" height="25" /><rect x="99" y="299" width="25" height="25" /><rect x="99" y="324" width="25" height="25" /><rect x="99" y="374" width="25" height="25" /><rect x="99" y="399" width="25" height="25" /><rect x="99" y="449" width="25" height="25" /><rect x="99" y="499" width="25" height="25" /><rect x="99" y="524" width="25" height="25" /><rect x="99" y="574" width="25" height="25" /><rect x="99" y="624" width="25" height="25" /><rect x="99" y="699" width="25" height="25" /><rect x="99" y="749" width="25" height="25" /><rect x="124" y="274" width="25" height="25" /><rect x="124" y="299" width="25" height="25" /><rect x="124" y="374" width="25" height="25" /><rect x="124" y="399" width="25" height="25" /><rect x="124" y="424" width="25" height="25" /><rect x="124" y="449" width="25" height="25" /><rect x="124" y="474" width="25" height="25" /><rect x="124" y="499" width="25" height="25" /><rect x="124" y="549" width="25" height="25" /><rect x="124" y="574" width="25" height="25" /><rect x="124" y="624" width="25" height="25" /><rect x="124" y="674" width="25" height="25" /><rect x="124" y="724" width="25" height="25" /><rect x="124" y="749" width="25" height="25" /><rect x="149" y="274" width="25" height="25" /><rect x="149" y="324" width="25" height="25" /><rect x="149" y="374" width="25" height="25" /><rect x="149" y="424" width="25" height="25" /><rect x="149" y="449" width="25" height="25" /><rect x="149" y="499" width="25" height="25" /><rect x="149" y="574" width="25" height="25" /><rect x="149" y="624" width="25" height="25" /><rect x="149" y="674" width="25" height="25" /><rect x="174" y="274" width="25" height="25" /><rect x="174" y="324" width="25" height="25" /><rect x="174" y="374" width="25" height="25" /><rect x="174" y="424" width="25" height="25" /><rect x="174" y="474" width="25" height="25" /><rect x="174" y="499" width="25" height="25" /><rect x="174" y="524" width="25" height="25" /><rect x="174" y="574" width="25" height="25" /><rect x="174" y="649" width="25" height="25" /><rect x="174" y="674" width="25" height="25" /><rect x="174" y="699" width="25" height="25" /><rect x="174" y="749" width="25" height="25" /><rect x="199" y="249" width="25" height="25" /><rect x="199" y="299" width="25" height="25" /><rect x="199" y="349" width="25" height="25" /><rect x="199" y="399" width="25" height="25" /><rect x="199" y="449" width="25" height="25" /><rect x="199" y="499" width="25" height="25" /><rect x="199" y="549" width="25" height="25" /><rect x="199" y="599" width="25" height="25" /><rect x="199" y="649" width="25" height="25" /><rect x="199" y="699" width="25" height="25" /><rect x="199" y="749" width="25" height="25" /><rect x="224" y="274" width="25" height="25" /><rect x="224" y="299" width="25" height="25" /><rect x="224" y="324" width="25" height="25" /><rect x="224" y="349" width="25" height="25" /><rect x="224" y="449" width="25" height="25" /><rect x="224" y="474" width="25" height="25" /><rect x="224" y="499" width="25" height="25" /><rect x="224" y="524" width="25" height="25" /><rect x="224" y="549" width="25" height="25" /><rect x="224" y="599" width="25" height="25" /><rect x="224" y="649" width="25" height="25" /><rect x="224" y="674" width="25" height="25" /><rect x="224" y="724" width="25" height="25" /><rect x="224" y="749" width="25" height="25" /><rect x="249" y="74" width="25" height="25" /><rect x="249" y="199" width="25" height="25" /><rect x="249" y="224" width="25" height="25" /><rect x="249" y="249" width="25" height="25" /><rect x="249" y="274" width="25" height="25" /><rect x="249" y="324" width="25" height="25" /><rect x="249" y="399" width="25" height="25" /><rect x="249" y="424" width="25" height="25" /><rect x="249" y="449" width="25" height="25" /><rect x="249" y="499" width="25" height="25" /><rect x="249" y="599" width="25" height="25" /><rect x="249" y="699" width="25" height="25" /><rect x="249" y="749" width="25" height="25" /><rect x="249" y="774" width="25" height="25" /><rect x="249" y="924" width="25" height="25" /><rect x="249" y="949" width="25" height="25" /><rect x="274" y="49" width="25" height="25" /><rect x="274" y="174" width="25" height="25" /><rect x="274" y="224" width="25" height="25" /><rect x="274" y="249" width="25" height="25" /><rect x="274" y="299" width="25" height="25" /><rect x="274" y="324" width="25" height="25" /><rect x="274" y="349" width="25" height="25" /><rect x="274" y="374" width="25" height="25" /><rect x="274" y="399" width="25" height="25" /><rect x="274" y="474" width="25" height="25" /><rect x="274" y="549" width="25" height="25" /><rect x="274" y="624" width="25" height="25" /><rect x="274" y="674" width="25" height="25" /><rect x="274" y="699" width="25" height="25" /><rect x="274" y="749" width="25" height="25" /><rect x="274" y="774" width="25" height="25" /><rect x="274" y="799" width="25" height="25" /><rect x="274" y="824" width="25" height="25" /><rect x="274" y="849" width="25" height="25" /><rect x="274" y="899" width="25" height="25" /><rect x="299" y="49" width="25" height="25" /><rect x="299" y="149" width="25" height="25" /><rect x="299" y="199" width="25" height="25" /><rect x="299" y="324" width="25" height="25" /><rect x="299" y="424" width="25" height="25" /><rect x="299" y="474" width="25" height="25" /><rect x="299" y="499" width="25" height="25" /><rect x="299" y="524" width="25" height="25" /><rect x="299" y="549" width="25" height="25" /><rect x="299" y="674" width="25" height="25" /><rect x="299" y="699" width="25" height="25" /><rect x="299" y="724" width="25" height="25" /><rect x="299" y="749" width="25" height="25" /><rect x="299" y="799" width="25" height="25" /><rect x="299" y="824" width="25" height="25" /><rect x="299" y="849" width="25" height="25" /><rect x="299" y="899" width="25" height="25" /><rect x="299" y="924" width="25" height="25" /><rect x="299" y="949" width="25" height="25" /><rect x="324" y="99" width="25" height="25" /><rect x="324" y="124" width="25" height="25" /><rect x="324" y="149" width="25" height="25" /><rect x="324" y="224" width="25" height="25" /><rect x="324" y="249" width="25" height="25" /><rect x="324" y="324" width="25" height="25" /><rect x="324" y="349" width="25" height="25" /><rect x="324" y="374" width="25" height="25" /><rect x="324" y="474" width="25" height="25" /><rect x="324" y="524" width="25" height="25" /><rect x="324" y="549" width="25" height="25" /><rect x="324" y="624" width="25" height="25" /><rect x="324" y="699" width="25" height="25" /><rect x="324" y="799" width="25" height="25" /><rect x="324" y="824" width="25" height="25" /><rect x="324" y="874" width="25" height="25" /><rect x="349" y="124" width="25" height="25" /><rect x="349" y="149" width="25" height="25" /><rect x="349" y="174" width="25" height="25" /><rect x="349" y="199" width="25" height="25" /><rect x="349" y="224" width="25" height="25" /><rect x="349" y="249" width="25" height="25" /><rect x="349" y="274" width="25" height="25" /><rect x="349" y="299" width="25" height="25" /><rect x="349" y="724" width="25" height="25" /><rect x="349" y="749" width="25" height="25" /><rect x="349" y="799" width="25" height="25" /><rect x="349" y="824" width="25" height="25" /><rect x="349" y="924" width="25" height="25" /><rect x="349" y="949" width="25" height="25" /><rect x="374" y="99" width="25" height="25" /><rect x="374" y="124" width="25" height="25" /><rect x="374" y="149" width="25" height="25" /><rect x="374" y="249" width="25" height="25" /><rect x="374" y="274" width="25" height="25" /><rect x="374" y="699" width="25" height="25" /><rect x="374" y="724" width="25" height="25" /><rect x="374" y="749" width="25" height="25" /><rect x="374" y="774" width="25" height="25" /><rect x="374" y="824" width="25" height="25" /><rect x="374" y="899" width="25" height="25" /><rect x="399" y="99" width="25" height="25" /><rect x="399" y="199" width="25" height="25" /><rect x="399" y="249" width="25" height="25" /><rect x="399" y="674" width="25" height="25" /><rect x="399" y="724" width="25" height="25" /><rect x="399" y="749" width="25" height="25" /><rect x="399" y="849" width="25" height="25" /><rect x="399" y="874" width="25" height="25" /><rect x="399" y="924" width="25" height="25" /><rect x="399" y="949" width="25" height="25" /><rect x="424" y="74" width="25" height="25" /><rect x="424" y="124" width="25" height="25" /><rect x="424" y="174" width="25" height="25" /><rect x="424" y="249" width="25" height="25" /><rect x="424" y="774" width="25" height="25" /><rect x="424" y="799" width="25" height="25" /><rect x="424" y="849" width="25" height="25" /><rect x="424" y="874" width="25" height="25" /><rect x="424" y="899" width="25" height="25" /><rect x="424" y="949" width="25" height="25" /><rect x="449" y="199" width="25" height="25" /><rect x="449" y="674" width="25" height="25" /><rect x="449" y="699" width="25" height="25" /><rect x="449" y="724" width="25" height="25" /><rect x="449" y="774" width="25" height="25" /><rect x="449" y="799" width="25" height="25" /><rect x="449" y="849" width="25" height="25" /><rect x="449" y="899" width="25" height="25" /><rect x="449" y="924" width="25" height="25" /><rect x="449" y="949" width="25" height="25" /><rect x="474" y="49" width="25" height="25" /><rect x="474" y="74" width="25" height="25" /><rect x="474" y="124" width="25" height="25" /><rect x="474" y="149" width="25" height="25" /><rect x="474" y="274" width="25" height="25" /><rect x="474" y="299" width="25" height="25" /><rect x="474" y="324" width="25" height="25" /><rect x="474" y="674" width="25" height="25" /><rect x="474" y="724" width="25" height="25" /><rect x="474" y="824" width="25" height="25" /><rect x="499" y="74" width="25" height="25" /><rect x="499" y="99" width="25" height="25" /><rect x="499" y="174" width="25" height="25" /><rect x="499" y="199" width="25" height="25" /><rect x="499" y="674" width="25" height="25" /><rect x="499" y="724" width="25" height="25" /><rect x="499" y="799" width="25" height="25" /><rect x="499" y="849" width="25" height="25" /><rect x="499" y="874" width="25" height="25" /><rect x="499" y="949" width="25" height="25" /><rect x="524" y="49" width="25" height="25" /><rect x="524" y="74" width="25" height="25" /><rect x="524" y="99" width="25" height="25" /><rect x="524" y="149" width="25" height="25" /><rect x="524" y="174" width="25" height="25" /><rect x="524" y="274" width="25" height="25" /><rect x="524" y="299" width="25" height="25" /><rect x="524" y="324" width="25" height="25" /><rect x="524" y="699" width="25" height="25" /><rect x="524" y="724" width="25" height="25" /><rect x="524" y="774" width="25" height="25" /><rect x="524" y="799" width="25" height="25" /><rect x="524" y="874" width="25" height="25" /><rect x="549" y="49" width="25" height="25" /><rect x="549" y="74" width="25" height="25" /><rect x="549" y="99" width="25" height="25" /><rect x="549" y="174" width="25" height="25" /><rect x="549" y="199" width="25" height="25" /><rect x="549" y="224" width="25" height="25" /><rect x="549" y="249" width="25" height="25" /><rect x="549" y="274" width="25" height="25" /><rect x="549" y="299" width="25" height="25" /><rect x="549" y="674" width="25" height="25" /><rect x="549" y="724" width="25" height="25" /><rect x="549" y="774" width="25" height="25" /><rect x="549" y="799" width="25" height="25" /><rect x="549" y="824" width="25" height="25" /><rect x="549" y="849" width="25" height="25" /><rect x="549" y="899" width="25" height="25" /><rect x="549" y="949" width="25" height="25" /><rect x="574" y="49" width="25" height="25" /><rect x="574" y="74" width="25" height="25" /><rect x="574" y="124" width="25" height="25" /><rect x="574" y="149" width="25" height="25" /><rect x="574" y="249" width="25" height="25" /><rect x="574" y="299" width="25" height="25" /><rect x="574" y="324" width="25" height="25" /><rect x="574" y="699" width="25" height="25" /><rect x="574" y="724" width="25" height="25" /><rect x="574" y="749" width="25" height="25" /><rect x="574" y="824" width="25" height="25" /><rect x="574" y="849" width="25" height="25" /><rect x="574" y="874" width="25" height="25" /><rect x="574" y="899" width="25" height="25" /><rect x="599" y="149" width="25" height="25" /><rect x="599" y="199" width="25" height="25" /><rect x="599" y="224" width="25" height="25" /><rect x="599" y="724" width="25" height="25" /><rect x="599" y="799" width="25" height="25" /><rect x="599" y="924" width="25" height="25" /><rect x="599" y="949" width="25" height="25" /><rect x="624" y="149" width="25" height="25" /><rect x="624" y="224" width="25" height="25" /><rect x="624" y="274" width="25" height="25" /><rect x="624" y="324" width="25" height="25" /><rect x="624" y="699" width="25" height="25" /><rect x="624" y="724" width="25" height="25" /><rect x="624" y="774" width="25" height="25" /><rect x="624" y="824" width="25" height="25" /><rect x="624" y="924" width="25" height="25" /><rect x="624" y="949" width="25" height="25" /><rect x="649" y="99" width="25" height="25" /><rect x="649" y="199" width="25" height="25" /><rect x="649" y="249" width="25" height="25" /><rect x="649" y="299" width="25" height="25" /><rect x="649" y="324" width="25" height="25" /><rect x="649" y="674" width="25" height="25" /><rect x="649" y="699" width="25" height="25" /><rect x="649" y="749" width="25" height="25" /><rect x="649" y="774" width="25" height="25" /><rect x="649" y="799" width="25" height="25" /><rect x="649" y="849" width="25" height="25" /><rect x="649" y="874" width="25" height="25" /><rect x="649" y="949" width="25" height="25" /><rect x="674" y="49" width="25" height="25" /><rect x="674" y="124" width="25" height="25" /><rect x="674" y="174" width="25" height="25" /><rect x="674" y="224" width="25" height="25" /><rect x="674" y="249" width="25" height="25" /><rect x="674" y="274" width="25" height="25" /><rect x="674" y="374" width="25" height="25" /><rect x="674" y="474" width="25" height="25" /><rect x="674" y="524" width="25" height="25" /><rect x="674" y="549" width="25" height="25" /><rect x="674" y="574" width="25" height="25" /><rect x="674" y="624" width="25" height="25" /><rect x="674" y="649" width="25" height="25" /><rect x="674" y="699" width="25" height="25" /><rect x="674" y="749" width="25" height="25" /><rect x="674" y="799" width="25" height="25" /><rect x="674" y="824" width="25" height="25" /><rect x="674" y="874" width="25" height="25" /><rect x="674" y="924" width="25" height="25" /><rect x="699" y="49" width="25" height="25" /><rect x="699" y="174" width="25" height="25" /><rect x="699" y="199" width="25" height="25" /><rect x="699" y="249" width="25" height="25" /><rect x="699" y="299" width="25" height="25" /><rect x="699" y="324" width="25" height="25" /><rect x="699" y="349" width="25" height="25" /><rect x="699" y="374" width="25" height="25" /><rect x="699" y="449" width="25" height="25" /><rect x="699" y="474" width="25" height="25" /><rect x="699" y="599" width="25" height="25" /><rect x="699" y="674" width="25" height="25" /><rect x="699" y="699" width="25" height="25" /><rect x="699" y="799" width="25" height="25" /><rect x="699" y="824" width="25" height="25" /><rect x="699" y="874" width="25" height="25" /><rect x="699" y="924" width="25" height="25" /><rect x="699" y="949" width="25" height="25" /><rect x="724" y="49" width="25" height="25" /><rect x="724" y="99" width="25" height="25" /><rect x="724" y="174" width="25" height="25" /><rect x="724" y="249" width="25" height="25" /><rect x="724" y="299" width="25" height="25" /><rect x="724" y="324" width="25" height="25" /><rect x="724" y="349" width="25" height="25" /><rect x="724" y="374" width="25" height="25" /><rect x="724" y="399" width="25" height="25" /><rect x="724" y="424" width="25" height="25" /><rect x="724" y="474" width="25" height="25" /><rect x="724" y="499" width="25" height="25" /><rect x="724" y="524" width="25" height="25" /><rect x="724" y="549" width="25" height="25" /><rect x="724" y="724" width="25" height="25" /><rect x="724" y="774" width="25" height="25" /><rect x="724" y="824" width="25" height="25" /><rect x="724" y="899" width="25" height="25" /><rect x="724" y="924" width="25" height="25" /><rect x="749" y="49" width="25" height="25" /><rect x="749" y="99" width="25" height="25" /><rect x="749" y="124" width="25" height="25" /><rect x="749" y="149" width="25" height="25" /><rect x="749" y="174" width="25" height="25" /><rect x="749" y="199" width="25" height="25" /><rect x="749" y="224" width="25" height="25" /><rect x="749" y="299" width="25" height="25" /><rect x="749" y="324" width="25" height="25" /><rect x="749" y="349" width="25" height="25" /><rect x="749" y="374" width="25" height="25" /><rect x="749" y="399" width="25" height="25" /><rect x="749" y="449" width="25" height="25" /><rect x="749" y="524" width="25" height="25" /><rect x="749" y="549" width="25" height="25" /><rect x="749" y="599" width="25" height="25" /><rect x="749" y="624" width="25" height="25" /><rect x="749" y="674" width="25" height="25" /><rect x="749" y="699" width="25" height="25" /><rect x="749" y="749" width="25" height="25" /><rect x="749" y="774" width="25" height="25" /><rect x="749" y="799" width="25" height="25" /><rect x="749" y="824" width="25" height="25" /><rect x="749" y="849" width="25" height="25" /><rect x="749" y="899" width="25" height="25" /><rect x="749" y="924" width="25" height="25" /><rect x="774" y="249" width="25" height="25" /><rect x="774" y="274" width="25" height="25" /><rect x="774" y="324" width="25" height="25" /><rect x="774" y="349" width="25" height="25" /><rect x="774" y="399" width="25" height="25" /><rect x="774" y="424" width="25" height="25" /><rect x="774" y="499" width="25" height="25" /><rect x="774" y="524" width="25" height="25" /><rect x="774" y="574" width="25" height="25" /><rect x="774" y="624" width="25" height="25" /><rect x="774" y="674" width="25" height="25" /><rect x="774" y="699" width="25" height="25" /><rect x="774" y="749" width="25" height="25" /><rect x="774" y="849" width="25" height="25" /><rect x="774" y="874" width="25" height="25" /><rect x="774" y="924" width="25" height="25" /><rect x="799" y="249" width="25" height="25" /><rect x="799" y="274" width="25" height="25" /><rect x="799" y="299" width="25" height="25" /><rect x="799" y="349" width="25" height="25" /><rect x="799" y="399" width="25" height="25" /><rect x="799" y="424" width="25" height="25" /><rect x="799" y="499" width="25" height="25" /><rect x="799" y="549" width="25" height="25" /><rect x="799" y="624" width="25" height="25" /><rect x="799" y="749" width="25" height="25" /><rect x="799" y="799" width="25" height="25" /><rect x="799" y="849" width="25" height="25" /><rect x="799" y="874" width="25" height="25" /><rect x="799" y="899" width="25" height="25" /><rect x="799" y="949" width="25" height="25" /><rect x="824" y="299" width="25" height="25" /><rect x="824" y="374" width="25" height="25" /><rect x="824" y="399" width="25" height="25" /><rect x="824" y="424" width="25" height="25" /><rect x="824" y="524" width="25" height="25" /><rect x="824" y="574" width="25" height="25" /><rect x="824" y="624" width="25" height="25" /><rect x="824" y="699" width="25" height="25" /><rect x="824" y="724" width="25" height="25" /><rect x="824" y="749" width="25" height="25" /><rect x="824" y="849" width="25" height="25" /><rect x="824" y="874" width="25" height="25" /><rect x="824" y="924" width="25" height="25" /><rect x="824" y="949" width="25" height="25" /><rect x="849" y="299" width="25" height="25" /><rect x="849" y="374" width="25" height="25" /><rect x="849" y="424" width="25" height="25" /><rect x="849" y="474" width="25" height="25" /><rect x="849" y="549" width="25" height="25" /><rect x="849" y="574" width="25" height="25" /><rect x="849" y="599" width="25" height="25" /><rect x="849" y="649" width="25" height="25" /><rect x="849" y="674" width="25" height="25" /><rect x="849" y="699" width="25" height="25" /><rect x="849" y="724" width="25" height="25" /><rect x="849" y="749" width="25" height="25" /><rect x="849" y="774" width="25" height="25" /><rect x="849" y="799" width="25" height="25" /><rect x="849" y="824" width="25" height="25" /><rect x="849" y="849" width="25" height="25" /><rect x="849" y="899" width="25" height="25" /><rect x="849" y="924" width="25" height="25" /><rect x="849" y="949" width="25" height="25" /><rect x="874" y="274" width="25" height="25" /><rect x="874" y="324" width="25" height="25" /><rect x="874" y="349" width="25" height="25" /><rect x="874" y="399" width="25" height="25" /><rect x="874" y="549" width="25" height="25" /><rect x="874" y="599" width="25" height="25" /><rect x="874" y="674" width="25" height="25" /><rect x="874" y="699" width="25" height="25" /><rect x="874" y="749" width="25" height="25" /><rect x="874" y="799" width="25" height="25" /><rect x="874" y="824" width="25" height="25" /><rect x="874" y="899" width="25" height="25" /><rect x="874" y="924" width="25" height="25" /><rect x="899" y="274" width="25" height="25" /><rect x="899" y="324" width="25" height="25" /><rect x="899" y="399" width="25" height="25" /><rect x="899" y="449" width="25" height="25" /><rect x="899" y="474" width="25" height="25" /><rect x="899" y="549" width="25" height="25" /><rect x="899" y="574" width="25" height="25" /><rect x="899" y="599" width="25" height="25" /><rect x="899" y="624" width="25" height="25" /><rect x="899" y="649" width="25" height="25" /><rect x="899" y="674" width="25" height="25" /><rect x="899" y="699" width="25" height="25" /><rect x="899" y="774" width="25" height="25" /><rect x="899" y="824" width="25" height="25" /><rect x="899" y="874" width="25" height="25" /><rect x="899" y="899" width="25" height="25" /><rect x="899" y="949" width="25" height="25" /><rect x="924" y="249" width="25" height="25" /><rect x="924" y="349" width="25" height="25" /><rect x="924" y="374" width="25" height="25" /><rect x="924" y="399" width="25" height="25" /><rect x="924" y="424" width="25" height="25" /><rect x="924" y="474" width="25" height="25" /><rect x="924" y="624" width="25" height="25" /><rect x="924" y="699" width="25" height="25" /><rect x="924" y="724" width="25" height="25" /><rect x="924" y="749" width="25" height="25" /><rect x="924" y="774" width="25" height="25" /><rect x="924" y="824" width="25" height="25" /><rect x="924" y="849" width="25" height="25" /><rect x="924" y="874" width="25" height="25" /><rect x="924" y="949" width="25" height="25" /><rect x="949" y="299" width="25" height="25" /><rect x="949" y="349" width="25" height="25" /><rect x="949" y="374" width="25" height="25" /><rect x="949" y="424" width="25" height="25" /><rect x="949" y="474" width="25" height="25" /><rect x="949" y="499" width="25" height="25" /><rect x="949" y="524" width="25" height="25" /><rect x="949" y="699" width="25" height="25" /><rect x="949" y="749" width="25" height="25" /><rect x="949" y="774" width="25" height="25" /><rect x="949" y="874" width="25" height="25" /><rect x="949" y="949" width="25" height="25" /><path clip-rule="evenodd" d="M 49 49v 175h 175v -175zM 74 74h 125v 125h -125z" /><rect x="99" y="99" width="25" height="25" /><rect x="99" y="124" width="25" height="25" /><rect x="99" y="149" width="25" height="25" /><rect x="124" y="99" width="25" height="25" /><rect x="124" y="124" width="25" height="25" /><rect x="124" y="149" width="25" height="25" /><rect x="149" y="99" width="25" height="25" /><rect x="149" y="124" width="25" height="25" /><rect x="149" y="149" width="25" height="25" /><path clip-rule="evenodd" d="M 799 49v 175h 175v -175zM 824 74h 125v 125h -125z" /><rect x="849" y="99" width="25" height="25" /><rect x="849" y="124" width="25" height="25" /><rect x="849" y="149" width="25" height="25" /><rect x="874" y="99" width="25" height="25" /><rect x="874" y="124" width="25" height="25" /><rect x="874" y="149" width="25" height="25" /><rect x="899" y="99" width="25" height="25" /><rect x="899" y="124" width="25" height="25" /><rect x="899" y="149" width="25" height="25" /><path clip-rule="evenodd" d="M 49 799v 175h 175v -175zM 74 824h 125v 125h -125z" /><rect x="99" y="849" width="25" height="25" /><rect x="99" y="874" width="25" height="25" /><rect x="99" y="899" width="25" height="25" /><rect x="124" y="849" width="25" height="25" /><rect x="124" y="874" width="25" height="25" /><rect x="124" y="899" width="25" height="25" /><rect x="149" y="849" width="25" height="25" /><rect x="149" y="874" width="25" height="25" /><rect x="149" y="899" width="25" height="25" /></g><svg  x="382" y="382" width="259px" height="259px" version="1.1" id="Layer_1" xmlns="http://www.w3.org/2000/svg" xmlns:xlink="http://www.w3.org/1999/xlink" 
                     viewBox="0 0 80 80" style="enable-background:new 0 0 80 80;" xml:space="preserve">
                    <path d="M16,36L16,36c0-0.7-0.5-1.2-1.7-1.2h-2.1v2.3h2.2C15.4,37.1,16,36.7,16,36z M0,0l0,80l80,0l0-80L0,0z M29.2,10l10.9,0l0,3
                    h-3.7l0,9.5H33l0-9.5h-3.7L29.2,10z M18,10l10,0v2.9l-6.6,0v1.9l6,0l0,2.7l-6,0v2l6.7,0v2.9l-10.1,0L18,10z M7.4,20.6l2.2-2.1
                    c0.6,0.7,1.2,1.2,2,1.2c0.9,0,1.4-0.6,1.4-1.7l0-7.9h3.4l0,7.9c0,1.6-0.4,2.7-1.2,3.5c-0.8,0.8-2,1.3-3.4,1.3
                    C9.7,22.7,8.3,21.8,7.4,20.6z M8.8,27.4h5.9c1.6,0,2.7,0.4,3.4,1.1c0.5,0.5,0.8,1.2,0.8,2v0c0,1.4-0.8,2.3-1.9,2.8
                    c1.5,0.5,2.5,1.4,2.5,3.1v0c0,2.1-1.7,3.4-4.7,3.4l-5.9,0L8.8,27.4z M39,70L9,70v-5l30,0V70z M41.1,39.9l-0.9-2.2h-4.8l-0.9,2.2
                    l-3.6,0h-3.1l-2.5-3.8h-1.2v3.8l-3.5,0l0-12.5h5.5c1.9,0,3.2,0.5,4.1,1.3c0.7,0.7,1.1,1.7,1.1,2.9v0c0,1.9-1,3.2-2.6,3.9l2.4,3.5
                    l5-11.8l3.3,0l5.3,12.6H41.1z M48.7,39.9h-3.5l0-12.5h3.5L48.7,39.9z M61.2,39.9l-3,0L53.5,33l0,6.9h-3.4l0-12.5h3.2l4.5,6.6l0-6.6
                    h3.4L61.2,39.9z M72.7,36c0,2.6-2,4.1-5,4.1c-2.2,0-4.3-0.7-5.9-2.1l1.9-2.3c1.2,1,2.6,1.5,4.1,1.5c0.9,0,1.4-0.3,1.4-0.9v0
                    c0-0.5-0.4-0.8-2.1-1.2c-2.7-0.6-4.7-1.4-4.7-3.9v0c0-2.3,1.8-4,4.8-4c2.1,0,3.8,0.6,5.1,1.7l-1.7,2.4c-1.1-0.8-2.4-1.2-3.5-1.2
                    c-0.8,0-1.2,0.3-1.2,0.8v0c0,0.6,0.4,0.8,2.2,1.2C70.9,32.7,72.7,33.7,72.7,36L72.7,36z M26,30.4h-1.9v3H26c1.2,0,1.9-0.6,1.9-1.5v0
                    C27.8,30.9,27.1,30.4,26,30.4z M15.5,31.3L15.5,31.3c0-0.7-0.6-1.1-1.6-1.1l-1.7,0v2.2l1.7,0C14.9,32.4,15.5,32.1,15.5,31.3z
                     M36.4,35l2.8,0l-1.4-3.5L36.4,35z"/>
                    </svg>
                </svg>